<svg xmlns="http://www.w3.org/2000/svg" xmlns:xlink="http://www.w3.org/1999/xlink" width="259.333" height="244.667" viewBox="0 0 259.333 244.667">
  <defs>
    <linearGradient id="linear-gradient" x1="0.886" y1="0.81" x2="0.315" y2="0.442" gradientUnits="objectBoundingBox">
      <stop offset="0" stop-color="#fff" stop-opacity="0"/>
      <stop offset="1"/>
    </linearGradient>
  </defs>
  <g id="Group_642" data-name="Group 642" transform="translate(8 -42.013)">
    <g id="Group_337" data-name="Group 337" transform="translate(-8 42)">
      <circle id="Ellipse_10" data-name="Ellipse 10" cx="75.5" cy="75.5" r="75.5" transform="translate(0 0.013)" fill="#28626d"/>
      <path id="Path_3445" data-name="Path 3445" d="M300.958,177.4,171.61,132.417l-41.8,62.478L300.958,339.929S301.981,182.725,300.958,177.4Z" transform="translate(-42.079 -95.249)" opacity="0.06" fill="url(#linear-gradient)"/>
    </g>
    <g id="Group_338" data-name="Group 338" transform="translate(46.739 110.412)">
      <path id="path2144" d="M166.069-169.425c-5.069.256-9.9-6.052-10.536-14.116s3.205-14.234,8.348-13.77a6.854,6.854,0,0,1,2.523.769c3.75,1.947,6.715,7.279,7.192,13.366s-1.672,11.291-5.124,13.081a5.774,5.774,0,0,1-2.4.669Zm96.491-3.958-93.9,5.617-.038-.493.73-.387c3.622-2.245,5.822-7.932,5.309-14.51-.544-7.007-4.025-13.149-8.4-15.23a7.736,7.736,0,0,0-2.357-.7l-.163-.029-.2-.006-.138,0c-5.655-.275-9.866,6.571-9.149,15.563.727,9.165,6.225,16.287,11.967,15.944,0,0,21.657,2.815,25.868,10.619,7.759-.394,77.508-10.164,77.508-10.164a11.249,11.249,0,0,0-7.029-6.216" transform="translate(-154.166 199.138)" fill="#beced6"/>
      <path id="path2148" d="M165.184-172.12c-4.461.192-8.685-5.377-9.242-12.45s2.8-12.515,7.311-12.143a6.057,6.057,0,0,1,2.527.823c3.18,1.819,5.674,6.408,6.081,11.644s-1.374,9.719-4.275,11.406a5.092,5.092,0,0,1-2.4.721Zm7.657-12.108c-.477-6.087-3.442-11.419-7.192-13.366a6.853,6.853,0,0,0-2.523-.768c-5.143-.464-8.989,5.7-8.348,13.77s5.466,14.372,10.535,14.116a5.772,5.772,0,0,0,2.4-.669c3.452-1.79,5.594-7,5.124-13.081" transform="translate(-153.409 200.189)" fill="#a3b5ba"/>
      <path id="path2150" d="M166.167-176.173a4.1,4.1,0,0,1-1.908.564c-3.539.134-6.875-4.288-7.314-9.885s2.206-9.9,5.783-9.623a4.879,4.879,0,0,1,2,.644c2.527,1.435,4.512,5.076,4.835,9.235s-1.1,7.73-3.4,9.066Zm5.008-9.04c-.407-5.236-2.9-9.825-6.081-11.643a6.057,6.057,0,0,0-2.527-.823c-4.515-.371-7.874,5.063-7.311,12.143s4.781,12.643,9.242,12.45a5.092,5.092,0,0,0,2.4-.72c2.9-1.688,4.682-6.177,4.275-11.407" transform="translate(-152.724 201.156)" fill="#fff"/>
      <path id="path2152" d="M168.575-186.737c-.323-4.16-2.309-7.8-4.835-9.235a4.88,4.88,0,0,0-2-.644c-3.577-.279-6.225,4.025-5.783,9.623s3.776,10.02,7.314,9.885a4.1,4.1,0,0,0,1.909-.564c2.306-1.335,3.731-4.906,3.4-9.066" transform="translate(-151.732 202.654)" fill="#beced6"/>
      <path id="path2154" d="M259.229-181.365c-.269-3.859-1.4-7.135-2.668-7.884l0-.122-.442-.042-97.9-9.706a7.737,7.737,0,0,1,2.357.7c4.374,2.081,7.855,8.223,8.4,15.23.512,6.577-1.688,12.265-5.309,14.51l-.73.387.038.493,93.9-5.617.349-.022.436-.026-.01-.122c1.166-.695,1.845-3.932,1.576-7.785" transform="translate(-148.485 199.165)" fill="#fff"/>
    </g>
    <g id="Group_339" data-name="Group 339" transform="translate(75.314 78.331)">
      <path id="path2100" d="M212.859-178.9c1.3-.05,2.611-.15,3.9-.208,2.627-.134,5.263-.25,7.9-.442,1.568-.117,3.128-.292,4.7-.425,2.369-.2,4.737-.392,7.106-.659,1.31-.142,2.619-.325,3.929-.484l1.143-.142c1.977-.242,3.962-.484,5.947-.759l.008-.309c.692-14.746-6.472-28.358-18.475-36.849-1.118-.818-2.319-1.56-3.511-2.277l-.35.659c1.293,1.042,2.577,2.135,3.778,3.319-6.139,9.5-11.794,21.344-16.773,31.152,6.1-17.749,11.218-30.435,13.2-35.222l-.175-.117.551-.784.5-1.176.058-.575c-1.576-1.576-8.466-7.64-25.189-8.574l-.025.008v54.08q5.893,0,11.777-.217" transform="translate(-151.367 232.773)" fill="#fec001"/>
      <path id="path2102" d="M240.392-223.575c-1.31.15-2.619.334-3.929.475-2.369.267-4.737.459-7.106.659-1.568.133-3.128.309-4.7.425-2.636.192-5.271.309-7.9.442-1.293.058-2.6.158-3.9.208q-5.893.213-11.777.217v7.181q15.026,0,30.068-.967c4.888-.309,9.258-1.635,12.011-3.47l-1.051,1.243a14.929,14.929,0,0,1-4.829,3.478,22.474,22.474,0,0,1-7.6,2.077q-14.313,1.314-28.6,1.318v4.1q13.387,0,26.807-1.143a22.3,22.3,0,0,0,6.08-1.418,21.055,21.055,0,0,0,5.013-2.769l.884-.626c1.693-.192,3.395-.342,5.088-.567,3.545-.45,6.156-3.328,5.814-6.339q-.263-2.39-.542-4.788l-1.185-.851-1.56.209c-1.985.275-3.97.517-5.947.759l-1.143.15" transform="translate(-151.367 275.237)" fill="#efab0e"/>
      <path id="path2104" d="M215.86-207.344q13.5,1.151,26.99,1.151v-4.1q-14.4,0-28.842-1.343a22.447,22.447,0,0,1-7.607-2.052,14.608,14.608,0,0,1-5.054-3.787l-.567-.717a26.421,26.421,0,0,0,11.735,3.236q15.163.988,30.335.984v-7.181q-5.893,0-11.777-.217c-1.293-.05-2.594-.15-3.878-.209-2.636-.134-5.271-.25-7.907-.442-1.576-.117-3.136-.292-4.7-.425-2.369-.2-4.738-.392-7.106-.659-1.284-.134-2.577-.317-3.862-.467l-1.159-.15c-1.993-.242-3.978-.484-5.972-.767l-1.593-.208-1.184.851c-.175,1.6-.367,3.194-.542,4.787-.342,3.011,2.277,5.888,5.822,6.339,1.643.209,3.294.367,4.938.551l1.485,1.051a21.355,21.355,0,0,0,4.045,2.227,22.223,22.223,0,0,0,6.406,1.543" transform="translate(-193.135 275.237)" fill="#efab0e"/>
      <path id="path2112" d="M237.281-218.967a14.931,14.931,0,0,0,4.829-3.478l1.051-1.243c-2.752,1.835-7.123,3.161-12.011,3.47q-15.026.963-30.068.968v3.678q14.288,0,28.6-1.318a22.473,22.473,0,0,0,7.6-2.077" transform="translate(-151.367 280.52)" fill="#fec001"/>
      <path id="path2114" d="M236.427-219.432q-15.163,0-30.335-.984a26.427,26.427,0,0,1-11.735-3.236l.567.717a14.609,14.609,0,0,0,5.054,3.787,22.447,22.447,0,0,0,7.607,2.052q14.425,1.339,28.842,1.343v-3.678" transform="translate(-186.711 280.703)" fill="#fec001"/>
      <path id="path2116" d="M196.63-224.722c6.18,9.5,11.794,21.344,16.815,31.152a363.932,363.932,0,0,0-13.212-35.239l-.375-.859c-.325-.751-.534-1.2-.534-1.2l-.05-.525-.275.459-.05.067,1.118,2.169.342.659c-1.293,1.043-2.577,2.135-3.778,3.32" transform="translate(-174.764 240.018)" fill="#f0b20d"/>
      <path id="path2118" d="M216.431-229.651l-.375.9c-1.985,4.787-7.106,17.473-13.2,35.222,4.979-9.809,10.634-21.652,16.773-31.152-1.2-1.184-2.486-2.277-3.778-3.319l.35-.659,1.143-2.169-.033-.075-.317-.5-.058.575-.5,1.176" transform="translate(-142.061 239.977)" fill="#efab0e"/>
      <path id="path2142" d="M200.857-181.118c1.285.158,2.577.342,3.862.475,2.369.267,4.738.459,7.106.659,1.568.134,3.128.309,4.7.425,2.636.192,5.271.309,7.907.442,1.285.058,2.586.158,3.879.208q5.893.213,11.777.217l33.855-1.952-33.855-2.194v-49.935c-16.84.934-23.721,7.064-25.214,8.6l-.325.4.058.075.275-.459.05.525s.208.45.534,1.2l.517.759-.142.1a363.974,363.974,0,0,1,13.212,35.239c-5.021-9.809-10.634-21.652-16.815-31.152,1.2-1.184,2.485-2.277,3.778-3.319l-.342-.659c-1.2.717-2.4,1.46-3.52,2.277-12,8.491-19.167,22.1-18.45,36.849l.017.309c1.993.284,3.978.525,5.972.767l1.159.142" transform="translate(-190.376 232.78)" fill="#fec001"/>
      <rect id="Rectangle_61" data-name="Rectangle 61" width="3" height="55" transform="translate(48.686 -0.318)" fill="#fec001"/>
    </g>
    <text id="i" transform="translate(114 121.013)" fill="#fff" font-size="45" font-family="Lemon-Regular, Lemon"><tspan x="0" y="0">i</tspan></text>
    <rect id="Rectangle_62" data-name="Rectangle 62" width="3" height="6" transform="translate(124 133.013)" fill="#efab0e"/>
  </g>
</svg>
